<?xml version="1.0" encoding="utf-8"?>
<!-- Svg Vector Icons : http://www.onlinewebfonts.com/icon -->
<!DOCTYPE svg PUBLIC "-//W3C//DTD SVG 1.1//EN" "http://www.w3.org/Graphics/SVG/1.1/DTD/svg11.dtd">
<svg version="1.1" xmlns="http://www.w3.org/2000/svg" xmlns:xlink="http://www.w3.org/1999/xlink" x="0px" y="0px" viewBox="0 0 1000 1000" enable-background="new 0 0 1000 1000" xml:space="preserve">
<metadata> Svg Vector Icons : http://www.onlinewebfonts.com/icon </metadata>
<g><g><path d="M676.4,430.3c54,28.9,158,20.1,237-59c78.4-78.4,108-193,33.9-269.6l0.1,0c-0.4-0.3-1.6-1.6-1.9-1.9c0,0,0,0-0.1,0c-76.5-74.1-191.1-44.5-269.6,33.9c-79,79.1-87.9,183-59,237c-7.4,44.2-68.1,92.2-122.5,123.3c-41.9-25.9-94.8-71.6-100.4-163.5c4-36.7-8.1-74.9-36.2-103c-2.6-2.6-10-8.9-10-8.9L142.9,59l-18.7,18.6l222.3,208.6l-24.1,24.1L107,95l-19.8,19.8l215.4,215.4l-20.4,20.4L66.9,135.2l-18,17.9L263,367.1l-24.5,24.6l-208-220.2L10,192l170,214.2c0,0,4,4.1,5.8,5.7c24.7,21.6,55.8,31.8,86.6,31c0.2,0,0.5,0.1,0.7,0.1c81,0.8,131,50,162.4,92.5c-77,77-315.9,316-315.9,316l0.1,0.1c-0.2,0.2-0.5,0.4-0.8,0.6c-19.5,19.4-19.5,51,0,70.5c1,1,4.7,4.7,5.7,5.7c19.5,19.5,51.1,19.5,70.5,0c0.2-0.2,0.4-0.5,0.6-0.8l0.1,0.1c0,0,221.9-221.9,306.9-306.9c81,80.9,305.4,305.3,305.4,305.3l0.1-0.1c0.2,0.2,0.3,0.5,0.6,0.8c19.1,19.1,50.3,19.1,69.5-0.1c19.1-19.2,19.2-50.3,0-69.5c-0.3-0.3-0.6-0.4-0.8-0.6l0.1-0.1c0,0-247.9-247.8-316.6-316.6C591.8,489.2,635.7,437.1,676.4,430.3z M650.1,282.2c1.2-13.2,3.8-28.3,8.2-44.3c2.3-8,5-16.2,8.4-24.4c3.7-8.4,7.5-16.2,13.1-24.4c10.8-15.7,23.9-28,36.9-38.2c12.9-10.4,26-18.5,37.6-24.6c11.6-6.2,21.9-10.3,29.3-12.6c7.5-2.5,11.9-2.8,11.9-2.8s-3.6,2.7-9,7.8c-5.5,5.1-13.2,12.3-22.6,21.1c-17.9,17.5-43.5,40.2-61.6,64.9c-4.4,5.6-8.3,13.1-11.7,19.9c-3.7,7-7,14.2-10,21.3c-6.2,14.2-11.3,27.9-15.8,39.7c-4.3,11.9-7.7,21.9-9.7,29c-2.2,7.1-1.9,11.4-1.5,11.4c-0.2,0.3-2.8-3.8-3.6-11.7C649.1,306.4,648.9,295.4,650.1,282.2z"/></g><g></g><g></g><g></g><g></g><g></g><g></g><g></g><g></g><g></g><g></g><g></g><g></g><g></g><g></g><g></g></g>
</svg>